<svg xmlns="http://www.w3.org/2000/svg" fill="none" viewBox="0 0 24 24" id="hamburgermenu"><path fill="#212427" fill-rule="evenodd" d="M20.75 7C20.75 7.41421 20.4142 7.75 20 7.75H4C3.58579 7.75 3.25 7.41421 3.25 7 3.25 6.58579 3.58579 6.25 4 6.25H20C20.4142 6.25 20.75 6.58579 20.75 7zM20.75 12C20.75 12.4142 20.4142 12.75 20 12.75H4C3.58579 12.75 3.25 12.4142 3.25 12 3.25 11.5858 3.58579 11.25 4 11.25H20C20.4142 11.25 20.75 11.5858 20.75 12zM20.75 17C20.75 17.4142 20.4142 17.75 20 17.75H4C3.58579 17.75 3.25 17.4142 3.25 17 3.25 16.5858 3.58579 16.25 4 16.25H20C20.4142 16.25 20.75 16.5858 20.75 17z" clip-rule="evenodd" class="color111111 svgShape"></path></svg>